<!DOCTYPE svg PUBLIC "-//W3C//DTD SVG 1.1//EN" "http://www.w3.org/Graphics/SVG/1.1/DTD/svg11.dtd">
<!-- Uploaded to: SVG Repo, www.svgrepo.com, Transformed by: SVG Repo Mixer Tools -->
<svg height="64px" width="64px" version="1.1" id="Layer_1" xmlns="http://www.w3.org/2000/svg" xmlns:xlink="http://www.w3.org/1999/xlink" viewBox="-97.28 -97.28 706.56 706.56" xml:space="preserve" fill="#000000" stroke="#000000" stroke-width="0.00512">
<g id="SVGRepo_bgCarrier" stroke-width="0"/>
<g id="SVGRepo_tracerCarrier" stroke-linecap="round" stroke-linejoin="round" stroke="#CCCCCC" stroke-width="30.72"> <path style="fill:#ec3232;" d="M512,256.006C512,397.402,397.394,512.004,256.004,512C114.606,512.004,0,397.402,0,256.006 C-0.007,114.61,114.606,0,256.004,0C397.394,0,512,114.614,512,256.006z"/> <path style="fill:#b80f0f;" d="M506.922,306.916c-0.37-0.374-0.742-0.745-1.115-1.116c-0.482-0.514-146.553-146.503-147.69-147.539 c-0.448-0.521-30.734-30.7-31.22-31.209c-7.609-8.835-18.707-14.34-30.96-14.34c-7.154,0-14.201,1.94-20.39,5.55 c-8.732-10.031-21.228-15.862-34.522-15.862c-19.585,0-36.706,12.479-43.378,30.965c-19.676-0.803-37.025,13.044-41.65,32.231 c-18.078,4.7-31.197,21.615-31.197,41.159c0,11.693,4.821,22.686,12.819,30.586c0.476,0.518,6.858,6.868,7.314,7.322 c0.482,12.866,5.886,24.402,14.403,32.695c0.482,0.514,80.553,80.621,80.665,80.738V403.2c0,2.153,1.133,3.964,2.763,5.124 c0.417,0.586,90.193,90.362,90.779,90.778c0.19,0.269,0.46,0.453,0.683,0.684C421.588,471.78,488.512,398.158,506.922,306.916z"/> <path style="fill:#F4F6F9;" d="M387.2,211.913c0-9.882-4.403-19.122-11.897-25.21c-5.103-19.809-19.997-35.325-39.046-40.86 c-4.178-19.175-20.797-33.132-40.319-33.132c-7.153,0-14.201,1.94-20.39,5.55c-8.732-10.03-21.229-15.861-34.523-15.861 c-19.584,0-36.706,12.478-43.378,30.965c-19.675-0.803-37.025,13.044-41.65,32.231c-18.078,4.7-31.197,21.616-31.197,41.159 c0,14.868,7.715,28.688,19.969,36.329c0.128,26.159,20.863,47.403,46.334,47.403c6.531,0,12.941-1.419,18.857-4.141 c5.722,8.863,15.488,14.453,26.071,14.453c1.339,0,2.662-0.097,3.969-0.271V403.2c0,3.534,2.866,6.4,6.4,6.4h19.2 c3.534,0,6.4-2.866,6.4-6.4v-47.775l13.22-8.813c2.355,0.971,4.899,1.548,7.58,1.548c1.241,0,2.468-0.118,3.681-0.356 c4.779,6.577,12.266,10.596,20.319,10.596s15.54-4.019,20.319-10.597c1.213,0.238,2.441,0.356,3.681,0.356 c11.469,0,20.8-9.762,20.8-21.759c0-8.406-4.556-15.853-11.622-19.459c-3.372-7.616-10.577-12.541-18.778-12.541 c-3.365,0-6.65,0.866-9.6,2.497c-2.95-1.631-6.235-2.497-9.6-2.497c-7.3,0-13.909,4.028-17.625,10.303 c-11.963-0.922-22.372,9.153-22.375,21.697c0,4.231,1.21,8.153,3.216,11.498L272,340.042v-49.835 c1.312,0.176,2.635,0.281,3.969,0.281c9.663,0,18.487-4.466,24.319-11.888c8.381,7.641,19.137,11.888,30.594,11.888 c25.55,0,46.334-21.372,46.334-47.644c0-2.272-0.172-4.585-0.515-6.915C383.341,229.862,387.2,221.163,387.2,211.913z M295.625,318.044c1.715,0.747,3.675,0.697,5.356-0.138c1.681-0.828,2.912-2.35,3.375-4.165c0.978-3.85,4.122-6.541,7.644-6.541 c2.375,0,4.118,1.197,5.166,2.203c2.475,2.381,6.394,2.381,8.868,0c1.046-1.006,2.79-2.203,5.166-2.203 c3.466,0,6.507,2.531,7.569,6.297c0.581,2.066,2.162,3.7,4.206,4.356c3.428,1.1,5.825,4.615,5.825,8.547 c0.003,6.219-5.822,11.106-11.475,7.994c-1.578-0.871-3.456-1.031-5.172-0.45c-1.71,0.588-3.09,1.872-3.803,3.534 c-2.111,4.935-6.645,8.123-11.549,8.123s-9.438-3.187-11.55-8.122c-0.713-1.663-2.094-2.947-3.803-3.534 c-0.678-0.231-1.381-0.347-2.081-0.347c-1.069,0-2.134,0.269-3.09,0.797c-5.642,3.111-11.476-1.776-11.476-7.995 C284.803,320.406,290.337,315.772,295.625,318.044z M252.8,396.8V295.684c2.35-1.547,4.515-3.383,6.4-5.521V396.8H252.8z M366.066,228.075c-2.154,1.488-3.181,4.138-2.597,6.69c0.628,2.747,0.947,5.466,0.947,8.078c0,19.213-15.044,34.844-33.534,34.844 c-10.481,0-20.178-4.991-26.601-13.694c-1.388-1.878-3.687-2.875-6.01-2.541c-2.316,0.313-4.278,1.862-5.116,4.047 c-2.844,7.403-9.59,12.188-17.187,12.188c-5.7,0-9.801-2.685-12.235-4.934c-1.581-1.462-3.785-2.028-5.878-1.513 c-2.087,0.515-3.778,2.047-4.497,4.071c-2.69,7.59-9.657,12.688-17.328,12.688c-7.653,0-14.612-5.082-17.315-12.641 c-0.662-1.856-2.141-3.303-4.01-3.922c-0.659-0.219-1.338-0.325-2.016-0.325c-1.247,0-2.481,0.366-3.543,1.072 c-5.412,3.6-11.653,5.503-18.044,5.503c-18.491,0-33.534-15.631-33.534-34.844c0-0.988,0.071-1.959,0.147-2.925 c0.212-2.628-1.213-5.119-3.587-6.269c-10.042-4.864-16.529-15.423-16.529-26.892c0-14.813,10.65-27.45,24.769-29.394 c2.863-0.394,5.106-2.656,5.475-5.522c1.89-14.656,14.037-25.707,28.253-25.707c1.572,0,3.21,0.159,5.003,0.487 c3.347,0.591,6.606-1.516,7.381-4.837c3.666-15.653,17.05-26.585,32.544-26.585c11.129,0,21.509,5.722,27.769,15.31 c0.997,1.525,2.597,2.554,4.397,2.828c1.778,0.246,3.625-0.235,5.038-1.391c5.097-4.209,11.222-6.434,17.71-6.434 c14.487,0,26.669,11.278,28.334,26.238c0.306,2.759,2.359,5.006,5.078,5.563c16.912,3.45,30.256,16.978,34,34.46 c0.343,1.603,1.291,3.012,2.644,3.94c5.263,3.606,8.406,9.663,8.406,16.201C374.4,218.422,371.284,224.466,366.066,228.075z"/> </g>
<g id="SVGRepo_iconCarrier"> <path style="fill:#ec3232;" d="M512,256.006C512,397.402,397.394,512.004,256.004,512C114.606,512.004,0,397.402,0,256.006 C-0.007,114.61,114.606,0,256.004,0C397.394,0,512,114.614,512,256.006z"/> <path style="fill:#b80f0f;" d="M506.922,306.916c-0.37-0.374-0.742-0.745-1.115-1.116c-0.482-0.514-146.553-146.503-147.69-147.539 c-0.448-0.521-30.734-30.7-31.22-31.209c-7.609-8.835-18.707-14.34-30.96-14.34c-7.154,0-14.201,1.94-20.39,5.55 c-8.732-10.031-21.228-15.862-34.522-15.862c-19.585,0-36.706,12.479-43.378,30.965c-19.676-0.803-37.025,13.044-41.65,32.231 c-18.078,4.7-31.197,21.615-31.197,41.159c0,11.693,4.821,22.686,12.819,30.586c0.476,0.518,6.858,6.868,7.314,7.322 c0.482,12.866,5.886,24.402,14.403,32.695c0.482,0.514,80.553,80.621,80.665,80.738V403.2c0,2.153,1.133,3.964,2.763,5.124 c0.417,0.586,90.193,90.362,90.779,90.778c0.19,0.269,0.46,0.453,0.683,0.684C421.588,471.78,488.512,398.158,506.922,306.916z"/> <path style="fill:#F4F6F9;" d="M387.2,211.913c0-9.882-4.403-19.122-11.897-25.21c-5.103-19.809-19.997-35.325-39.046-40.86 c-4.178-19.175-20.797-33.132-40.319-33.132c-7.153,0-14.201,1.94-20.39,5.55c-8.732-10.03-21.229-15.861-34.523-15.861 c-19.584,0-36.706,12.478-43.378,30.965c-19.675-0.803-37.025,13.044-41.65,32.231c-18.078,4.7-31.197,21.616-31.197,41.159 c0,14.868,7.715,28.688,19.969,36.329c0.128,26.159,20.863,47.403,46.334,47.403c6.531,0,12.941-1.419,18.857-4.141 c5.722,8.863,15.488,14.453,26.071,14.453c1.339,0,2.662-0.097,3.969-0.271V403.2c0,3.534,2.866,6.4,6.4,6.4h19.2 c3.534,0,6.4-2.866,6.4-6.4v-47.775l13.22-8.813c2.355,0.971,4.899,1.548,7.58,1.548c1.241,0,2.468-0.118,3.681-0.356 c4.779,6.577,12.266,10.596,20.319,10.596s15.54-4.019,20.319-10.597c1.213,0.238,2.441,0.356,3.681,0.356 c11.469,0,20.8-9.762,20.8-21.759c0-8.406-4.556-15.853-11.622-19.459c-3.372-7.616-10.577-12.541-18.778-12.541 c-3.365,0-6.65,0.866-9.6,2.497c-2.95-1.631-6.235-2.497-9.6-2.497c-7.3,0-13.909,4.028-17.625,10.303 c-11.963-0.922-22.372,9.153-22.375,21.697c0,4.231,1.21,8.153,3.216,11.498L272,340.042v-49.835 c1.312,0.176,2.635,0.281,3.969,0.281c9.663,0,18.487-4.466,24.319-11.888c8.381,7.641,19.137,11.888,30.594,11.888 c25.55,0,46.334-21.372,46.334-47.644c0-2.272-0.172-4.585-0.515-6.915C383.341,229.862,387.2,221.163,387.2,211.913z M295.625,318.044c1.715,0.747,3.675,0.697,5.356-0.138c1.681-0.828,2.912-2.35,3.375-4.165c0.978-3.85,4.122-6.541,7.644-6.541 c2.375,0,4.118,1.197,5.166,2.203c2.475,2.381,6.394,2.381,8.868,0c1.046-1.006,2.79-2.203,5.166-2.203 c3.466,0,6.507,2.531,7.569,6.297c0.581,2.066,2.162,3.7,4.206,4.356c3.428,1.1,5.825,4.615,5.825,8.547 c0.003,6.219-5.822,11.106-11.475,7.994c-1.578-0.871-3.456-1.031-5.172-0.45c-1.71,0.588-3.09,1.872-3.803,3.534 c-2.111,4.935-6.645,8.123-11.549,8.123s-9.438-3.187-11.55-8.122c-0.713-1.663-2.094-2.947-3.803-3.534 c-0.678-0.231-1.381-0.347-2.081-0.347c-1.069,0-2.134,0.269-3.09,0.797c-5.642,3.111-11.476-1.776-11.476-7.995 C284.803,320.406,290.337,315.772,295.625,318.044z M252.8,396.8V295.684c2.35-1.547,4.515-3.383,6.4-5.521V396.8H252.8z M366.066,228.075c-2.154,1.488-3.181,4.138-2.597,6.69c0.628,2.747,0.947,5.466,0.947,8.078c0,19.213-15.044,34.844-33.534,34.844 c-10.481,0-20.178-4.991-26.601-13.694c-1.388-1.878-3.687-2.875-6.01-2.541c-2.316,0.313-4.278,1.862-5.116,4.047 c-2.844,7.403-9.59,12.188-17.187,12.188c-5.7,0-9.801-2.685-12.235-4.934c-1.581-1.462-3.785-2.028-5.878-1.513 c-2.087,0.515-3.778,2.047-4.497,4.071c-2.69,7.59-9.657,12.688-17.328,12.688c-7.653,0-14.612-5.082-17.315-12.641 c-0.662-1.856-2.141-3.303-4.01-3.922c-0.659-0.219-1.338-0.325-2.016-0.325c-1.247,0-2.481,0.366-3.543,1.072 c-5.412,3.6-11.653,5.503-18.044,5.503c-18.491,0-33.534-15.631-33.534-34.844c0-0.988,0.071-1.959,0.147-2.925 c0.212-2.628-1.213-5.119-3.587-6.269c-10.042-4.864-16.529-15.423-16.529-26.892c0-14.813,10.65-27.45,24.769-29.394 c2.863-0.394,5.106-2.656,5.475-5.522c1.89-14.656,14.037-25.707,28.253-25.707c1.572,0,3.21,0.159,5.003,0.487 c3.347,0.591,6.606-1.516,7.381-4.837c3.666-15.653,17.05-26.585,32.544-26.585c11.129,0,21.509,5.722,27.769,15.31 c0.997,1.525,2.597,2.554,4.397,2.828c1.778,0.246,3.625-0.235,5.038-1.391c5.097-4.209,11.222-6.434,17.71-6.434 c14.487,0,26.669,11.278,28.334,26.238c0.306,2.759,2.359,5.006,5.078,5.563c16.912,3.45,30.256,16.978,34,34.46 c0.343,1.603,1.291,3.012,2.644,3.94c5.263,3.606,8.406,9.663,8.406,16.201C374.4,218.422,371.284,224.466,366.066,228.075z"/> </g>
</svg>